# 3ds Max Wavefront OBJ Exporter v0.99 - (c)2007 guruware
# File Created: 03.05.2025 15:53:01

mtllib Bateo_Piso.mtl

#
# object Piso
#

v  -9.0498 0.2538 0.2297
v  8.7286 0.2538 0.2366
v  -9.0959 0.2538 0.2358
v  8.6825 0.2538 0.2305
v  -9.0068 0.2538 0.2119
v  8.6395 0.2538 0.2127
v  -8.9699 0.2538 0.1836
v  8.6026 0.2538 0.1844
v  -8.9415 0.2538 0.1467
v  8.5743 0.2538 0.1475
v  -8.9237 0.2538 0.1037
v  8.5565 0.2538 0.1045
v  -8.9177 0.2538 0.0576
v  8.5504 0.2538 0.0584
v  -8.9237 0.2538 0.0114
v  8.5565 0.2538 0.0122
v  -8.9415 0.2538 -0.0316
v  8.5743 0.2538 -0.0308
v  -8.9699 0.2538 -0.0685
v  8.6026 0.2538 -0.0677
v  -9.0068 0.2538 -0.0968
v  8.6395 0.2538 -0.0960
v  -9.0498 0.2538 -0.1146
v  8.6825 0.2538 -0.1138
v  -9.0959 0.2538 -0.1207
v  8.7286 0.2538 -0.1199
v  -9.0954 0.2538 -11.5997
v  8.7292 0.2538 -11.5989
v  -9.0492 0.2538 -11.6058
v  8.6830 0.2538 -11.6050
v  -9.0062 0.2538 -11.6236
v  8.6400 0.2538 -11.6228
v  -8.9693 0.2538 -11.6519
v  8.6031 0.2538 -11.6511
v  -8.9410 0.2538 -11.6888
v  8.5748 0.2538 -11.6880
v  -8.9360 0.2538 -11.7009
v  8.5570 0.2538 -11.7310
v  -8.9232 0.2538 -11.7318
v  -8.9171 0.2538 -11.7779
v  8.5509 0.2538 -11.7771
v  -8.9232 0.2538 -11.8241
v  8.5570 0.2538 -11.8233
v  -8.9360 0.2538 -11.8550
v  8.5748 0.2538 -11.8663
v  -8.9410 0.2538 -11.8671
v  -8.9693 0.2538 -11.9040
v  8.6031 0.2538 -11.9032
v  -9.0062 0.2538 -11.9323
v  8.6401 0.2538 -11.9315
v  -9.0492 0.2538 -11.9501
v  8.6831 0.2538 -11.9493
v  -9.0954 0.2538 -11.9562
v  8.7292 0.2538 -11.9554
v  -9.0948 0.2538 -23.5056
v  8.7297 0.2538 -23.5047
v  -9.0487 0.2538 -23.5116
v  8.6836 0.2538 -23.5108
v  -9.0057 0.2538 -23.5294
v  8.6406 0.2538 -23.5286
v  -8.9688 0.2538 -23.5578
v  8.6037 0.2538 -23.5570
v  -8.9405 0.2538 -23.5947
v  8.5754 0.2538 -23.5939
v  -8.9226 0.2538 -23.6377
v  8.5576 0.2538 -23.6369
v  -8.9166 0.2538 -23.6838
v  8.5515 0.2538 -23.6830
v  -8.9226 0.2538 -23.7299
v  8.5576 0.2538 -23.7291
v  -8.9404 0.2538 -23.7729
v  8.5754 0.2538 -23.7721
v  -8.9688 0.2538 -23.8098
v  8.6037 0.2538 -23.8090
v  -9.0057 0.2538 -23.8382
v  8.6406 0.2538 -23.8373
v  -9.0487 0.2538 -23.8560
v  8.6836 0.2538 -23.8552
v  -9.0948 0.2538 -23.8620
v  8.7297 0.2538 -23.8612
v  -9.0943 0.2538 -35.2360
v  8.7297 0.2538 -23.8620
v  -0.3248 0.2538 -32.8753
v  -0.3247 0.2538 -34.5151
v  1.6003 0.2538 -34.5151
v  8.7303 0.2538 -35.2342
v  8.6841 0.2538 -35.2403
v  -9.0573 0.2538 -35.2389
v  -9.0134 0.2538 -35.2544
v  8.6411 0.2538 -35.2581
v  -8.9751 0.2538 -35.2808
v  8.6042 0.2538 -35.2864
v  -8.9448 0.2538 -35.3162
v  8.5759 0.2538 -35.3234
v  -8.9248 0.2538 -35.3581
v  8.5581 0.2538 -35.3663
v  -8.9163 0.2538 -35.4039
v  8.5520 0.2538 -35.4125
v  -8.9170 0.2538 -35.4133
v  1.6002 0.2538 -32.8752
v  -9.0959 -0.1027 0.2358
v  8.7286 -0.1027 0.2366
v  8.7297 -0.1027 -23.5047
v  8.7292 -0.1027 -11.9554
v  8.7297 0.1112 -23.5047
# 105 vertices

vn 0.0000 -1.0000 0.0000
vn 1.0000 0.0000 -0.0000
vn -0.0000 1.0000 -0.0000
vn 0.0000 0.0000 1.0000
vn -1.0000 0.0000 -0.0000
vn 0.0000 0.0000 -1.0000
# 6 vertex normals

vt 0.0116 -0.0081 1.5000
vt 1.0090 -0.0083 1.5000
vt 0.0090 -0.0082 1.5000
vt 1.0064 -0.0081 1.5000
vt 0.0140 -0.0076 1.5000
vt 1.0040 -0.0076 1.5000
vt 0.0161 -0.0068 1.5000
vt 1.0020 -0.0068 1.5000
vt 0.0177 -0.0057 1.5000
vt 1.0004 -0.0058 1.5000
vt 0.0187 -0.0045 1.5000
vt 0.9994 -0.0045 1.5000
vt 0.0190 -0.0032 1.5000
vt 0.9990 -0.0033 1.5000
vt 0.0187 -0.0019 1.5000
vt 0.9994 -0.0020 1.5000
vt 0.0177 -0.0007 1.5000
vt 1.0004 -0.0008 1.5000
vt 0.0161 0.0003 1.5000
vt 1.0020 0.0003 1.5000
vt 0.0140 0.0011 1.5000
vt 1.0040 0.0011 1.5000
vt 0.0116 0.0016 1.5000
vt 1.0064 0.0016 1.5000
vt 0.0090 0.0018 1.5000
vt 1.0090 0.0017 1.5000
vt 0.0090 0.3238 1.5000
vt 1.0090 0.3237 1.5000
vt 0.0116 0.3239 1.5000
vt 1.0064 0.3239 1.5000
vt 0.0140 0.3244 1.5000
vt 1.0040 0.3244 1.5000
vt 0.0161 0.3252 1.5000
vt 1.0020 0.3252 1.5000
vt 0.0177 0.3263 1.5000
vt 1.0004 0.3262 1.5000
vt 0.0180 0.3266 1.5000
vt 0.9994 0.3275 1.5000
vt 0.0187 0.3275 1.5000
vt 0.0190 0.3288 1.5000
vt 0.9990 0.3287 1.5000
vt 0.0187 0.3301 1.5000
vt 0.9994 0.3300 1.5000
vt 0.0180 0.3309 1.5000
vt 1.0004 0.3312 1.5000
vt 0.0177 0.3313 1.5000
vt 0.0161 0.3323 1.5000
vt 1.0020 0.3323 1.5000
vt 0.0140 0.3331 1.5000
vt 1.0040 0.3331 1.5000
vt 0.0116 0.3336 1.5000
vt 1.0064 0.3336 1.5000
vt 0.0090 0.3338 1.5000
vt 1.0090 0.3337 1.5000
vt 0.0090 0.6577 1.5000
vt 1.0090 0.6577 1.5000
vt 0.0116 0.6579 1.5000
vt 1.0064 0.6579 1.5000
vt 0.0140 0.6584 1.5000
vt 1.0040 0.6584 1.5000
vt 0.0161 0.6592 1.5000
vt 1.0020 0.6592 1.5000
vt 0.0177 0.6602 1.5000
vt 1.0004 0.6602 1.5000
vt 0.0187 0.6614 1.5000
vt 0.9994 0.6614 1.5000
vt 0.0190 0.6627 1.5000
vt 0.9990 0.6627 1.5000
vt 0.0187 0.6640 1.5000
vt 0.9994 0.6640 1.5000
vt 0.0177 0.6652 1.5000
vt 1.0004 0.6652 1.5000
vt 0.0161 0.6663 1.5000
vt 1.0020 0.6663 1.5000
vt 0.0140 0.6671 1.5000
vt 1.0040 0.6671 1.5000
vt 0.0116 0.6676 1.5000
vt 1.0064 0.6676 1.5000
vt 0.0090 0.6677 1.5000
vt 1.0090 0.6677 1.5000
vt 0.0090 0.9868 1.5000
vt 0.5010 0.9206 1.5000
vt 0.5010 0.9666 1.5000
vt 0.6090 0.9666 1.5000
vt 1.0090 0.9867 1.5000
vt 1.0065 0.9869 1.5000
vt 0.0111 0.9869 1.5000
vt 0.0136 0.9873 1.5000
vt 1.0040 0.9874 1.5000
vt 0.0157 0.9881 1.5000
vt 1.0020 0.9882 1.5000
vt 0.0174 0.9890 1.5000
vt 1.0004 0.9892 1.5000
vt 0.0186 0.9902 1.5000
vt 0.9994 0.9905 1.5000
vt 0.0190 0.9915 1.5000
vt 0.9990 0.9917 1.5000
vt 0.0190 0.9918 1.5000
vt 0.6090 0.9206 1.5000
vt 0.0090 -0.0082 0.5000
vt 1.0090 -0.0083 0.5000
vt 1.0090 0.6577 0.5000
vt 1.0090 0.3337 0.5000
vt 1.0090 0.6577 1.1000
# 104 texture coords

o Piso
g Piso
usemtl 08___Default
s off
f 1/1/1 2/2/1 3/3/1 
f 2/2/1 1/1/1 4/4/1 
f 4/4/1 1/1/1 5/5/1 
f 4/4/1 5/5/1 6/6/1 
f 6/6/1 5/5/1 7/7/1 
f 6/6/1 7/7/1 8/8/1 
f 8/8/1 7/7/1 9/9/1 
f 8/8/1 9/9/1 10/10/1 
f 10/10/1 9/9/1 11/11/1 
f 10/10/1 11/11/1 12/12/1 
f 12/12/1 11/11/1 13/13/1 
f 12/12/1 13/13/1 14/14/1 
f 14/14/1 13/13/1 15/15/1 
f 14/14/1 15/15/1 16/16/1 
f 16/16/1 15/15/1 17/17/1 
f 16/16/1 17/17/1 18/18/1 
f 18/18/1 17/17/1 19/19/1 
f 18/18/1 19/19/1 20/20/1 
f 20/20/1 19/19/1 21/21/1 
f 20/20/1 21/21/1 22/22/1 
f 22/22/1 21/21/1 23/23/1 
f 22/22/1 23/23/1 24/24/1 
f 24/24/1 23/23/1 25/25/1 
f 24/24/1 25/25/1 26/26/1 
f 26/26/1 25/25/1 27/27/1 
f 26/26/1 27/27/1 28/28/1 
f 28/28/1 27/27/1 29/29/1 
f 28/28/1 29/29/1 30/30/1 
f 30/30/1 29/29/1 31/31/1 
f 30/30/1 31/31/1 32/32/1 
f 32/32/1 31/31/1 33/33/1 
f 32/32/1 33/33/1 34/34/1 
f 34/34/1 33/33/1 35/35/1 
f 34/34/1 35/35/1 36/36/1 
f 36/36/1 35/35/1 37/37/1 
f 36/36/1 37/37/1 38/38/1 
f 38/38/1 37/37/1 39/39/1 
f 38/38/1 39/39/1 40/40/1 
f 38/38/1 40/40/1 41/41/1 
f 41/41/1 40/40/1 42/42/1 
f 41/41/1 42/42/1 43/43/1 
f 43/43/1 42/42/1 44/44/1 
f 43/43/1 44/44/1 45/45/1 
f 45/45/1 44/44/1 46/46/1 
f 45/45/1 46/46/1 47/47/1 
f 45/45/1 47/47/1 48/48/1 
f 48/48/1 47/47/1 49/49/1 
f 48/48/1 49/49/1 50/50/1 
f 50/50/1 49/49/1 51/51/1 
f 50/50/1 51/51/1 52/52/1 
f 52/52/1 51/51/1 53/53/1 
f 52/52/1 53/53/1 54/54/1 
f 54/54/1 53/53/1 55/55/1 
f 54/54/1 55/55/1 56/56/1 
f 56/56/1 55/55/1 57/57/1 
f 56/56/1 57/57/1 58/58/1 
f 58/58/1 57/57/1 59/59/1 
f 58/58/1 59/59/1 60/60/1 
f 60/60/1 59/59/1 61/61/1 
f 60/60/1 61/61/1 62/62/1 
f 62/62/1 61/61/1 63/63/1 
f 62/62/1 63/63/1 64/64/1 
f 64/64/1 63/63/1 65/65/1 
f 64/64/1 65/65/1 66/66/1 
f 66/66/1 65/65/1 67/67/1 
f 66/66/1 67/67/1 68/68/1 
f 68/68/1 67/67/1 69/69/1 
f 68/68/1 69/69/1 70/70/1 
f 70/70/1 69/69/1 71/71/1 
f 70/70/1 71/71/1 72/72/1 
f 72/72/1 71/71/1 73/73/1 
f 72/72/1 73/73/1 74/74/1 
f 74/74/1 73/73/1 75/75/1 
f 74/74/1 75/75/1 76/76/1 
f 76/76/1 75/75/1 77/77/1 
f 76/76/1 77/77/1 78/78/1 
f 78/78/1 77/77/1 79/79/1 
f 78/78/1 79/79/1 80/80/1 
f 80/80/1 79/79/1 81/81/1 
f 80/80/1 81/81/1 82/80/1 
f 82/80/1 81/81/1 83/82/1 
f 83/82/1 81/81/1 84/83/1 
f 84/83/1 81/81/1 85/84/1 
f 85/84/1 81/81/1 86/85/1 
f 86/85/1 81/81/1 87/86/1 
f 87/86/1 81/81/1 88/87/1 
f 87/86/1 88/87/1 89/88/1 
f 87/86/1 89/88/1 90/89/1 
f 90/89/1 89/88/1 91/90/1 
f 90/89/1 91/90/1 92/91/1 
f 92/91/1 91/90/1 93/92/1 
f 92/91/1 93/92/1 94/93/1 
f 94/93/1 93/92/1 95/94/1 
f 94/93/1 95/94/1 96/95/1 
f 96/95/1 95/94/1 97/96/1 
f 96/95/1 97/96/1 98/97/1 
f 98/97/1 97/96/1 99/98/1 
f 82/80/1 100/99/1 86/85/1 
f 100/99/1 82/80/1 83/82/1 
f 86/85/1 100/99/1 85/84/1 
f 101/100/2 2/2/2 102/101/2 
f 2/2/2 101/100/2 3/3/2 
f 85/84/3 100/99/3 86/85/3 
f 83/82/3 82/80/3 100/99/3 
f 86/85/3 100/99/3 82/80/3 
f 99/98/3 97/96/3 98/97/3 
f 98/97/3 97/96/3 96/95/3 
f 97/96/3 95/94/3 96/95/3 
f 96/95/3 95/94/3 94/93/3 
f 95/94/3 93/92/3 94/93/3 
f 94/93/3 93/92/3 92/91/3 
f 93/92/3 91/90/3 92/91/3 
f 92/91/3 91/90/3 90/89/3 
f 91/90/3 89/88/3 90/89/3 
f 90/89/3 89/88/3 87/86/3 
f 89/88/3 88/87/3 87/86/3 
f 88/87/3 81/81/3 87/86/3 
f 87/86/3 81/81/3 86/85/3 
f 86/85/3 81/81/3 85/84/3 
f 85/84/3 81/81/3 84/83/3 
f 84/83/3 81/81/3 83/82/3 
f 83/82/3 81/81/3 82/80/3 
f 82/80/3 81/81/3 80/80/3 
f 81/81/3 79/79/3 80/80/3 
f 80/80/3 79/79/3 78/78/3 
f 79/79/3 77/77/3 78/78/3 
f 78/78/3 77/77/3 76/76/3 
f 77/77/3 75/75/3 76/76/3 
f 76/76/3 75/75/3 74/74/3 
f 75/75/3 73/73/3 74/74/3 
f 74/74/3 73/73/3 72/72/3 
f 73/73/3 71/71/3 72/72/3 
f 72/72/3 71/71/3 70/70/3 
f 71/71/3 69/69/3 70/70/3 
f 70/70/3 69/69/3 68/68/3 
f 69/69/3 67/67/3 68/68/3 
f 68/68/3 67/67/3 66/66/3 
f 67/67/3 65/65/3 66/66/3 
f 66/66/3 65/65/3 64/64/3 
f 65/65/3 63/63/3 64/64/3 
f 64/64/3 63/63/3 62/62/3 
f 63/63/3 61/61/3 62/62/3 
f 62/62/3 61/61/3 60/60/3 
f 61/61/3 59/59/3 60/60/3 
f 60/60/3 59/59/3 58/58/3 
f 59/59/3 57/57/3 58/58/3 
f 58/58/3 57/57/3 56/56/3 
f 57/57/3 55/55/3 56/56/3 
f 56/56/3 55/55/3 54/54/3 
f 55/55/3 53/53/3 54/54/3 
f 54/54/3 53/53/3 52/52/3 
f 53/53/3 51/51/3 52/52/3 
f 52/52/3 51/51/3 50/50/3 
f 51/51/3 49/49/3 50/50/3 
f 50/50/3 49/49/3 48/48/3 
f 49/49/3 47/47/3 48/48/3 
f 48/48/3 47/47/3 45/45/3 
f 47/47/3 46/46/3 45/45/3 
f 46/46/3 44/44/3 45/45/3 
f 45/45/3 44/44/3 43/43/3 
f 44/44/3 42/42/3 43/43/3 
f 43/43/3 42/42/3 41/41/3 
f 42/42/3 40/40/3 41/41/3 
f 41/41/3 40/40/3 38/38/3 
f 40/40/3 39/39/3 38/38/3 
f 39/39/3 37/37/3 38/38/3 
f 38/38/3 37/37/3 36/36/3 
f 37/37/3 35/35/3 36/36/3 
f 36/36/3 35/35/3 34/34/3 
f 35/35/3 33/33/3 34/34/3 
f 34/34/3 33/33/3 32/32/3 
f 33/33/3 31/31/3 32/32/3 
f 32/32/3 31/31/3 30/30/3 
f 31/31/3 29/29/3 30/30/3 
f 30/30/3 29/29/3 28/28/3 
f 29/29/3 27/27/3 28/28/3 
f 28/28/3 27/27/3 26/26/3 
f 27/27/3 25/25/3 26/26/3 
f 26/26/3 25/25/3 24/24/3 
f 25/25/3 23/23/3 24/24/3 
f 24/24/3 23/23/3 22/22/3 
f 23/23/3 21/21/3 22/22/3 
f 22/22/3 21/21/3 20/20/3 
f 21/21/3 19/19/3 20/20/3 
f 20/20/3 19/19/3 18/18/3 
f 19/19/3 17/17/3 18/18/3 
f 18/18/3 17/17/3 16/16/3 
f 17/17/3 15/15/3 16/16/3 
f 16/16/3 15/15/3 14/14/3 
f 15/15/3 13/13/3 14/14/3 
f 14/14/3 13/13/3 12/12/3 
f 13/13/3 11/11/3 12/12/3 
f 12/12/3 11/11/3 10/10/3 
f 11/11/3 9/9/3 10/10/3 
f 10/10/3 9/9/3 8/8/3 
f 9/9/3 7/7/3 8/8/3 
f 8/8/3 7/7/3 6/6/3 
f 7/7/3 5/5/3 6/6/3 
f 6/6/3 5/5/3 4/4/3 
f 5/5/3 1/1/3 4/4/3 
f 4/4/3 1/1/3 2/2/3 
f 3/3/3 2/2/3 1/1/3 
f 103/102/4 54/54/4 104/103/4 
f 54/54/4 103/102/4 105/104/4 
f 54/54/4 105/104/4 56/56/4 
f 3/3/5 101/100/5 2/2/5 
f 102/101/5 2/2/5 101/100/5 
f 56/56/6 105/104/6 54/54/6 
f 105/104/6 103/102/6 54/54/6 
f 104/103/6 54/54/6 103/102/6 
# 0 polygons - 210 triangles

