# 3ds Max Wavefront OBJ Exporter v0.99 - (c)2007 guruware
# File Created: 04.05.2025 18:55:34

mtllib Globos_Mesa.mtl

#
# object St√_tze
#

v  -10.7439 -5.4600 -18.2450
v  10.7439 -5.4600 -18.2450
v  10.7439 -3.3112 -18.2450
v  -10.7439 -3.3112 -18.2450
v  10.7439 -5.4600 -20.3937
v  10.7439 -3.3112 -20.3937
v  -10.7439 -5.4600 -20.3937
v  -10.7439 -3.3112 -20.3937
# 8 vertices

vn -0.5774 -0.5774 0.5774
vn 0.5774 -0.5774 0.5774
vn 0.5774 0.5774 0.5774
vn -0.5774 0.5774 0.5774
vn 0.5774 -0.5774 -0.5774
vn 0.5774 0.5774 -0.5774
vn -0.5774 -0.5774 -0.5774
vn -0.5774 0.5774 -0.5774
# 8 vertex normals

vt 0.0000 8.9909 3.0000
vt 1.0000 8.9909 3.0000
vt 1.0000 8.9909 4.0000
vt 0.0000 8.9909 4.0000
vt 1.0000 9.9909 3.0000
vt 1.0000 9.9909 4.0000
vt 0.0000 9.9909 3.0000
vt 0.0000 9.9909 4.0000
# 8 texture coords

o St√_tze
g St√_tze
usemtl 07___Default
s 1
f 1/1/1 2/2/2 3/3/3 4/4/4 
f 2/2/2 5/5/5 6/6/6 3/3/3 
f 5/5/5 7/7/7 8/8/8 6/6/6 
f 7/7/7 1/1/1 4/4/4 8/8/8 
f 4/4/4 3/3/3 6/6/6 8/8/8 
f 7/7/7 5/5/5 2/2/2 1/1/1 
# 6 polygons

#
# object St√_tze_1
#

v  -10.7439 -5.4600 20.2874
v  10.7439 -5.4600 20.2874
v  10.7439 -3.3112 20.2874
v  -10.7439 -3.3112 20.2874
v  10.7439 -5.4600 18.1386
v  10.7439 -3.3112 18.1386
v  -10.7439 -5.4600 18.1386
v  -10.7439 -3.3112 18.1386
# 8 vertices

vn -0.5774 -0.5774 0.5774
vn 0.5774 -0.5774 0.5774
vn 0.5774 0.5774 0.5774
vn -0.5774 0.5774 0.5774
vn 0.5774 -0.5774 -0.5774
vn 0.5774 0.5774 -0.5774
vn -0.5774 -0.5774 -0.5774
vn -0.5774 0.5774 -0.5774
# 8 vertex normals

vt 0.0000 -8.9414 3.0000
vt 1.0000 -8.9414 3.0000
vt 1.0000 -8.9414 4.0000
vt 0.0000 -8.9414 4.0000
vt 1.0000 -7.9414 3.0000
vt 1.0000 -7.9414 4.0000
vt 0.0000 -7.9414 3.0000
vt 0.0000 -7.9414 4.0000
# 8 texture coords

o St√_tze_1
g St√_tze_1
usemtl 07___Default
s 1
f 9/9/9 10/10/10 11/11/11 12/12/12 
f 10/10/10 13/13/13 14/14/14 11/11/11 
f 13/13/13 15/15/15 16/16/16 14/14/14 
f 15/15/15 9/9/9 12/12/12 16/16/16 
f 12/12/12 11/11/11 14/14/14 16/16/16 
f 15/15/15 13/13/13 10/10/10 9/9/9 
# 6 polygons

#
# object St√_tze_2
#

v  -1.0744 -5.4600 19.3389
v  1.0744 -5.4600 19.3389
v  1.0744 -3.3112 19.3389
v  -1.0744 -3.3112 19.3389
v  1.0744 -5.4600 -19.3389
v  1.0744 -3.3112 -19.3389
v  -1.0744 -5.4600 -19.3389
v  -1.0744 -3.3112 -19.3389
# 8 vertices

vn -0.5774 -0.5774 0.5774
vn 0.5774 -0.5774 0.5774
vn 0.5774 0.5774 0.5774
vn -0.5774 0.5774 0.5774
vn 0.5774 -0.5774 -0.5774
vn 0.5774 0.5774 -0.5774
vn -0.5774 -0.5774 -0.5774
vn -0.5774 0.5774 -0.5774
# 8 vertex normals

vt 0.0000 0.0000 3.0000
vt 1.0000 0.0000 3.0000
vt 1.0000 0.0000 4.0000
vt 0.0000 0.0000 4.0000
vt 1.0000 1.0000 3.0000
vt 1.0000 1.0000 4.0000
vt 0.0000 1.0000 3.0000
vt 0.0000 1.0000 4.0000
# 8 texture coords

o St√_tze_2
g St√_tze_2
usemtl 07___Default
s 1
f 17/17/17 18/18/18 19/19/19 20/20/20 
f 18/18/18 21/21/21 22/22/22 19/19/19 
f 21/21/21 23/23/23 24/24/24 22/22/22 
f 23/23/23 17/17/17 20/20/20 24/24/24 
f 20/20/20 19/19/19 22/22/22 24/24/24 
f 23/23/23 21/21/21 18/18/18 17/17/17 
# 6 polygons

#
# object Platte
#

v  -15.0414 -0.6215 23.6365
v  15.0414 -0.6215 23.6365
v  15.0414 0.4529 23.6365
v  -15.0414 0.4529 23.6365
v  15.0414 -0.6215 -23.6365
v  -15.0414 -0.6215 -23.6365
v  -15.0414 0.4529 -23.6365
v  15.0414 0.4529 -23.6365
# 8 vertices

vn -0.5774 -0.5774 0.5774
vn 0.5774 -0.5774 0.5774
vn 0.5774 0.5774 0.5774
vn -0.5774 0.5774 0.5774
vn 0.5774 -0.5774 -0.5774
vn -0.5774 -0.5774 -0.5774
vn -0.5774 0.5774 -0.5774
vn 0.5774 0.5774 -0.5774
# 8 vertex normals

vt 0.0000 0.0000 10.0035
vt 1.0000 0.0000 10.0035
vt 1.0000 0.0000 11.0035
vt 0.0000 0.0000 11.0035
vt 1.0000 1.0000 10.0035
vt 0.0000 1.0000 10.0035
vt 0.0000 1.0000 11.0035
vt 1.0000 1.0000 11.0035
# 8 texture coords

o Platte
g Platte
usemtl 07___Default
s 1
f 25/25/25 26/26/26 27/27/27 28/28/28 
f 29/29/29 30/30/30 31/31/31 32/32/32 
f 28/28/28 27/27/27 32/32/32 31/31/31 
f 30/30/30 29/29/29 26/26/26 25/25/25 
f 26/26/26 29/29/29 32/32/32 27/27/27 
f 30/30/30 25/25/25 28/28/28 31/31/31 
# 6 polygons

#
# object Bein
#

v  -12.8926 -21.5758 20.4133
v  -10.7439 -21.5758 20.4133
v  -10.7439 -0.0881 20.4133
v  -12.8926 -0.0881 20.4133
v  -10.7439 -21.5758 18.2646
v  -10.7439 -0.0881 18.2646
v  -12.8926 -21.5758 18.2646
v  -12.8926 -0.0881 18.2646
# 8 vertices

vn -0.5774 -0.5774 0.5774
vn 0.5774 -0.5774 0.5774
vn 0.5774 0.5774 0.5774
vn -0.5774 0.5774 0.5774
vn 0.5774 -0.5774 -0.5774
vn 0.5774 0.5774 -0.5774
vn -0.5774 -0.5774 -0.5774
vn -0.5774 0.5774 -0.5774
# 8 vertex normals

vt -5.5000 -9.0000 0.0000
vt -4.5000 -9.0000 0.0000
vt -4.5000 -9.0000 1.0000
vt -5.5000 -9.0000 1.0000
vt -4.5000 -8.0000 0.0000
vt -4.5000 -8.0000 1.0000
vt -5.5000 -8.0000 0.0000
vt -5.5000 -8.0000 1.0000
# 8 texture coords

o Bein
g Bein
usemtl 07___Default
s 1
f 33/33/33 34/34/34 35/35/35 36/36/36 
f 34/34/34 37/37/37 38/38/38 35/35/35 
f 37/37/37 39/39/39 40/40/40 38/38/38 
f 39/39/39 33/33/33 36/36/36 40/40/40 
f 36/36/36 35/35/35 38/38/38 40/40/40 
f 39/39/39 37/37/37 34/34/34 33/33/33 
# 6 polygons

#
# object St√_tze_1
#

v  10.7439 -21.5758 20.4133
v  12.8926 -21.5758 20.4133
v  12.8926 -0.0881 20.4133
v  10.7439 -0.0881 20.4133
v  12.8926 -21.5758 18.2646
v  12.8926 -0.0881 18.2646
v  10.7439 -21.5758 18.2646
v  10.7439 -0.0881 18.2646
# 8 vertices

vn -0.5774 -0.5774 0.5774
vn 0.5774 -0.5774 0.5774
vn 0.5774 0.5774 0.5774
vn -0.5774 0.5774 0.5774
vn 0.5774 -0.5774 -0.5774
vn 0.5774 0.5774 -0.5774
vn -0.5774 -0.5774 -0.5774
vn -0.5774 0.5774 -0.5774
# 8 vertex normals

vt 5.5000 -9.0000 0.0000
vt 6.5000 -9.0000 0.0000
vt 6.5000 -9.0000 1.0000
vt 5.5000 -9.0000 1.0000
vt 6.5000 -8.0000 0.0000
vt 6.5000 -8.0000 1.0000
vt 5.5000 -8.0000 0.0000
vt 5.5000 -8.0000 1.0000
# 8 texture coords

o St√_tze_1
g St√_tze_1
usemtl 07___Default
s 1
f 41/41/41 42/42/42 43/43/43 44/44/44 
f 42/42/42 45/45/45 46/46/46 43/43/43 
f 45/45/45 47/47/47 48/48/48 46/46/46 
f 47/47/47 41/41/41 44/44/44 48/48/48 
f 44/44/44 43/43/43 46/46/46 48/48/48 
f 47/47/47 45/45/45 42/42/42 41/41/41 
# 6 polygons

#
# object Bein_2
#

v  -12.8926 -21.5758 -18.2646
v  -10.7439 -21.5758 -18.2646
v  -10.7439 -0.0881 -18.2646
v  -12.8926 -0.0881 -18.2646
v  -10.7439 -21.5758 -20.4133
v  -10.7439 -0.0881 -20.4133
v  -12.8926 -21.5758 -20.4133
v  -12.8926 -0.0881 -20.4133
# 8 vertices

vn -0.5774 -0.5774 0.5774
vn 0.5774 -0.5774 0.5774
vn 0.5774 0.5774 0.5774
vn -0.5774 0.5774 0.5774
vn 0.5774 -0.5774 -0.5774
vn 0.5774 0.5774 -0.5774
vn -0.5774 -0.5774 -0.5774
vn -0.5774 0.5774 -0.5774
# 8 vertex normals

vt -5.5000 9.0000 0.0000
vt -4.5000 9.0000 0.0000
vt -4.5000 9.0000 1.0000
vt -5.5000 9.0000 1.0000
vt -4.5000 10.0000 0.0000
vt -4.5000 10.0000 1.0000
vt -5.5000 10.0000 0.0000
vt -5.5000 10.0000 1.0000
# 8 texture coords

o Bein_2
g Bein_2
usemtl 07___Default
s 1
f 49/49/49 50/50/50 51/51/51 52/52/52 
f 50/50/50 53/53/53 54/54/54 51/51/51 
f 53/53/53 55/55/55 56/56/56 54/54/54 
f 55/55/55 49/49/49 52/52/52 56/56/56 
f 52/52/52 51/51/51 54/54/54 56/56/56 
f 55/55/55 53/53/53 50/50/50 49/49/49 
# 6 polygons

#
# object Bein_3
#

v  10.7439 -21.5758 -18.2646
v  12.8926 -21.5758 -18.2646
v  12.8926 -0.0881 -18.2646
v  10.7439 -0.0881 -18.2646
v  12.8926 -21.5758 -20.4133
v  12.8926 -0.0881 -20.4133
v  10.7439 -21.5758 -20.4133
v  10.7439 -0.0881 -20.4133
# 8 vertices

vn -0.5774 -0.5774 0.5774
vn 0.5774 -0.5774 0.5774
vn 0.5774 0.5774 0.5774
vn -0.5774 0.5774 0.5774
vn 0.5774 -0.5774 -0.5774
vn 0.5774 0.5774 -0.5774
vn -0.5774 -0.5774 -0.5774
vn -0.5774 0.5774 -0.5774
# 8 vertex normals

vt 5.5000 9.0000 0.0000
vt 6.5000 9.0000 0.0000
vt 6.5000 9.0000 1.0000
vt 5.5000 9.0000 1.0000
vt 6.5000 10.0000 0.0000
vt 6.5000 10.0000 1.0000
vt 5.5000 10.0000 0.0000
vt 5.5000 10.0000 1.0000
# 8 texture coords

o Bein_3
g Bein_3
usemtl 07___Default
s 1
f 57/57/57 58/58/58 59/59/59 60/60/60 
f 58/58/58 61/61/61 62/62/62 59/59/59 
f 61/61/61 63/63/63 64/64/64 62/62/62 
f 63/63/63 57/57/57 60/60/60 64/64/64 
f 60/60/60 59/59/59 62/62/62 64/64/64 
f 63/63/63 61/61/61 58/58/58 57/57/57 
# 6 polygons

